<svg width="40" height="35" viewBox="0 0 40 35" fill="none" xmlns="http://www.w3.org/2000/svg">
<path d="M33.6104 27.0825C32.3167 23.8024 29.2597 21.2777 25.4729 20.3079C27.7278 18.8405 29.1917 16.4925 29.1917 13.8499C29.1917 9.41536 25.0688 5.80721 20 5.80721C14.9313 5.80721 10.8083 9.41536 10.8083 13.8499C10.8083 16.4919 12.2715 18.8398 14.5257 20.3073C10.7347 21.2759 7.675 23.7988 6.38472 27.077C3.97014 24.4538 2.52222 21.1221 2.52222 17.5C2.52222 9.06719 10.3625 2.20694 20 2.20694C29.6375 2.20694 37.4778 9.06719 37.4778 17.5C37.4778 21.1252 36.0278 24.4587 33.6104 27.0825ZM13.3306 13.8499C13.3306 10.6319 16.3222 8.01415 20 8.01415C23.6778 8.01415 26.6694 10.6319 26.6694 13.8499C26.6694 17.068 23.6778 19.6857 20 19.6857C16.3222 19.6857 13.3306 17.068 13.3306 13.8499ZM20 32.7931C15.5618 32.7931 11.5049 31.3207 8.41944 28.9267C9.28681 24.9764 13.2819 22.05 17.9806 22.05H22.0194C26.7097 22.05 30.7 24.9764 31.5764 28.9303C28.491 31.322 24.4368 32.7931 20 32.7931ZM34.1424 5.12543C30.3646 1.82049 25.3424 0 20 0C14.6576 0 9.63542 1.82049 5.85764 5.12543C2.08056 8.43099 0 12.8254 0 17.5C0 22.1746 2.08056 26.569 5.85764 29.8746C9.63542 33.1795 14.6576 35 20 35C25.3424 35 30.3646 33.1795 34.1424 29.8746C37.9194 26.569 40 22.1746 40 17.5C40 12.8254 37.9194 8.43099 34.1424 5.12543Z" fill="#0ABF04"/>
</svg>
